<svg width="184" height="47" viewBox="0 0 184 47" fill="none" xmlns="http://www.w3.org/2000/svg">
<path d="M31.56 40.712L30.856 41.416C29.2773 42.9947 27.4213 44.232 25.288 45.128C23.1547 46.0667 20.872 46.536 18.44 46.536C16.008 46.536 13.7253 46.0667 11.592 45.128C9.45867 44.232 7.58133 42.9947 5.96 41.416C4.38133 39.7947 3.12267 37.9173 2.184 35.784C1.288 33.6507 0.84 31.368 0.84 28.936C0.84 26.504 1.288 24.2213 2.184 22.088C3.12267 19.9547 4.38133 18.0987 5.96 16.52C7.58133 14.8987 9.45867 13.64 11.592 12.744C13.7253 11.8053 16.008 11.336 18.44 11.336C20.872 11.336 23.1547 11.8053 25.288 12.744C27.4213 13.64 29.2773 14.8987 30.856 16.52C32.4773 18.0987 33.736 19.9547 34.632 22.088C35.5707 24.2213 36.04 26.504 36.04 28.936V42.76C36.04 43.3573 35.8053 43.8907 35.336 44.36C34.9093 44.7867 34.3973 45 33.8 45C33.2027 45 32.6693 44.7867 32.2 44.36C31.7733 43.8907 31.56 43.3573 31.56 42.76V40.712ZM5.32 28.936C5.32 30.728 5.66133 32.4347 6.344 34.056C7.02667 35.6347 7.96533 37.0213 9.16 38.216C10.3547 39.4107 11.7413 40.3493 13.32 41.032C14.9413 41.7147 16.648 42.056 18.44 42.056C20.232 42.056 21.9173 41.7147 23.496 41.032C25.1173 40.3493 26.5253 39.4107 27.72 38.216C28.9147 37.0213 29.8533 35.6347 30.536 34.056C31.2187 32.4347 31.56 30.728 31.56 28.936C31.56 27.144 31.2187 25.4587 30.536 23.88C29.8533 22.2587 28.9147 20.8507 27.72 19.656C26.5253 18.4613 25.1173 17.5227 23.496 16.84C21.9173 16.1573 20.232 15.816 18.44 15.816C16.648 15.816 14.9413 16.1573 13.32 16.84C11.7413 17.5227 10.3547 18.4613 9.16 19.656C7.96533 20.8507 7.02667 22.2587 6.344 23.88C5.66133 25.4587 5.32 27.144 5.32 28.936ZM46.9 2.44C46.9 1.84267 47.1133 1.33067 47.54 0.903999C48.0093 0.434664 48.5427 0.199997 49.14 0.199997C49.7373 0.199997 50.2493 0.434664 50.676 0.903999C51.1453 1.33067 51.38 1.84267 51.38 2.44V29.32L68.66 13.704C68.8733 13.4907 69.108 13.32 69.364 13.192C69.62 13.064 69.9187 13 70.26 13C70.8147 13 71.284 13.2133 71.668 13.64C72.0947 14.024 72.308 14.4933 72.308 15.048C72.308 15.688 72.052 16.2213 71.54 16.648L59.316 27.592L72.116 41.288C72.244 41.416 72.372 41.608 72.5 41.864C72.6707 42.0773 72.756 42.3973 72.756 42.824C72.756 43.4213 72.5427 43.9333 72.116 44.36C71.6893 44.7867 71.1773 45 70.58 45C70.1533 45 69.7907 44.9147 69.492 44.744C69.236 44.5307 69.044 44.36 68.916 44.232L55.988 30.472L51.38 34.632V42.76C51.38 43.3573 51.1453 43.8907 50.676 44.36C50.2493 44.7867 49.7373 45 49.14 45C48.5427 45 48.0093 44.7867 47.54 44.36C47.1133 43.8907 46.9 43.3573 46.9 42.76V2.44ZM107.31 40.712L106.606 41.416C105.027 42.9947 103.171 44.232 101.038 45.128C98.9047 46.0667 96.622 46.536 94.19 46.536C91.758 46.536 89.4753 46.0667 87.342 45.128C85.2087 44.232 83.3313 42.9947 81.71 41.416C80.1313 39.7947 78.8727 37.9173 77.934 35.784C77.038 33.6507 76.59 31.368 76.59 28.936C76.59 26.504 77.038 24.2213 77.934 22.088C78.8727 19.9547 80.1313 18.0987 81.71 16.52C83.3313 14.8987 85.2087 13.64 87.342 12.744C89.4753 11.8053 91.758 11.336 94.19 11.336C96.622 11.336 98.9047 11.8053 101.038 12.744C103.171 13.64 105.027 14.8987 106.606 16.52C108.227 18.0987 109.486 19.9547 110.382 22.088C111.321 24.2213 111.79 26.504 111.79 28.936V42.76C111.79 43.3573 111.555 43.8907 111.086 44.36C110.659 44.7867 110.147 45 109.55 45C108.953 45 108.419 44.7867 107.95 44.36C107.523 43.8907 107.31 43.3573 107.31 42.76V40.712ZM81.07 28.936C81.07 30.728 81.4113 32.4347 82.094 34.056C82.7767 35.6347 83.7153 37.0213 84.91 38.216C86.1047 39.4107 87.4913 40.3493 89.07 41.032C90.6913 41.7147 92.398 42.056 94.19 42.056C95.982 42.056 97.6673 41.7147 99.246 41.032C100.867 40.3493 102.275 39.4107 103.47 38.216C104.665 37.0213 105.603 35.6347 106.286 34.056C106.969 32.4347 107.31 30.728 107.31 28.936C107.31 27.144 106.969 25.4587 106.286 23.88C105.603 22.2587 104.665 20.8507 103.47 19.656C102.275 18.4613 100.867 17.5227 99.246 16.84C97.6673 16.1573 95.982 15.816 94.19 15.816C92.398 15.816 90.6913 16.1573 89.07 16.84C87.4913 17.5227 86.1047 18.4613 84.91 19.656C83.7153 20.8507 82.7767 22.2587 82.094 23.88C81.4113 25.4587 81.07 27.144 81.07 28.936ZM121.058 37.576C121.058 36.936 121.25 36.4027 121.634 35.976C122.018 35.5493 122.53 35.336 123.17 35.336C123.639 35.336 124.002 35.464 124.258 35.72C124.556 35.976 124.791 36.296 124.962 36.68C125.815 38.728 126.86 40.1573 128.098 40.968C129.378 41.736 130.914 42.12 132.706 42.12C133.431 42.12 134.178 42.0347 134.946 41.864C135.756 41.6933 136.482 41.416 137.122 41.032C137.762 40.6053 138.295 40.072 138.722 39.432C139.148 38.7493 139.362 37.896 139.362 36.872C139.362 35.72 139.148 34.7813 138.722 34.056C138.338 33.3307 137.783 32.7333 137.058 32.264C136.375 31.752 135.586 31.3467 134.69 31.048C133.794 30.7493 132.855 30.472 131.874 30.216C130.636 29.8747 129.399 29.4693 128.162 29C126.967 28.5307 125.879 27.9333 124.898 27.208C123.959 26.4827 123.191 25.5867 122.594 24.52C121.996 23.4533 121.698 22.152 121.698 20.616C121.698 19.3787 121.996 18.2053 122.594 17.096C123.191 15.944 123.98 14.9413 124.962 14.088C125.986 13.2347 127.159 12.5733 128.482 12.104C129.804 11.592 131.191 11.336 132.642 11.336C133.964 11.336 135.116 11.5067 136.098 11.848C137.122 12.1893 137.975 12.5733 138.658 13C139.383 13.4267 139.938 13.8533 140.322 14.28C140.706 14.7067 140.94 15.0053 141.026 15.176C141.495 15.9013 141.73 16.6053 141.73 17.288C141.73 17.8427 141.559 18.312 141.218 18.696C140.919 19.08 140.407 19.272 139.682 19.272C139.255 19.272 138.871 19.1867 138.53 19.016C138.188 18.8453 137.847 18.4613 137.506 17.864C137.122 17.1813 136.524 16.6053 135.714 16.136C134.946 15.6667 133.922 15.432 132.642 15.432C131.788 15.432 130.956 15.5813 130.146 15.88C129.378 16.136 128.695 16.4987 128.098 16.968C127.5 17.4373 127.031 17.992 126.69 18.632C126.348 19.2293 126.178 19.848 126.178 20.488C126.178 21.2987 126.37 22.0027 126.754 22.6C127.18 23.1547 127.735 23.6453 128.418 24.072C129.1 24.456 129.847 24.7973 130.658 25.096C131.468 25.3947 132.3 25.672 133.154 25.928C134.69 26.3973 136.119 26.9307 137.442 27.528C138.764 28.0827 139.916 28.7867 140.898 29.64C141.879 30.4507 142.647 31.4533 143.202 32.648C143.756 33.8 144.034 35.208 144.034 36.872C144.034 38.408 143.714 39.7733 143.074 40.968C142.476 42.1627 141.666 43.1867 140.642 44.04C139.618 44.8507 138.402 45.4693 136.994 45.896C135.628 46.3227 134.178 46.536 132.642 46.536C130.466 46.536 128.61 46.1093 127.074 45.256C125.58 44.4027 124.322 43.3573 123.298 42.12C122.7 41.3947 122.167 40.6267 121.698 39.816C121.271 38.9627 121.058 38.216 121.058 37.576ZM154.9 2.44C154.9 1.84267 155.113 1.33067 155.54 0.903999C156.009 0.434664 156.543 0.199997 157.14 0.199997C157.737 0.199997 158.249 0.434664 158.676 0.903999C159.145 1.33067 159.38 1.90666 159.38 2.632V15.816C160.404 14.4507 161.791 13.3627 163.54 12.552C165.332 11.7413 167.188 11.336 169.108 11.336C171.071 11.336 172.927 11.72 174.676 12.488C176.425 13.256 177.94 14.3013 179.22 15.624C180.543 16.904 181.588 18.4187 182.356 20.168C183.124 21.9173 183.508 23.7733 183.508 25.736V42.76C183.508 43.3573 183.273 43.8907 182.804 44.36C182.377 44.7867 181.865 45 181.268 45C180.671 45 180.137 44.7867 179.668 44.36C179.241 43.8907 179.028 43.3573 179.028 42.76V25.736C178.943 24.3707 178.623 23.0907 178.068 21.896C177.556 20.7013 176.852 19.6773 175.956 18.824C175.103 17.928 174.079 17.224 172.884 16.712C171.732 16.2 170.473 15.944 169.108 15.944C167.828 15.944 166.591 16.2213 165.396 16.776C164.244 17.3307 163.22 18.0773 162.324 19.016C161.428 19.912 160.703 20.9573 160.148 22.152C159.636 23.304 159.38 24.52 159.38 25.8V42.76C159.38 43.3573 159.145 43.8907 158.676 44.36C158.249 44.7867 157.737 45 157.14 45C156.543 45 156.009 44.7867 155.54 44.36C155.113 43.8907 154.9 43.3573 154.9 42.76V2.44Z" fill="white"/>
</svg>
