<svg width="274" height="49" viewBox="0 0 274 49" fill="none" xmlns="http://www.w3.org/2000/svg">
<path d="M0.24 47L21.936 1.56H32.88L54.512 47H43.056L39.92 40.472H14.832L11.696 47H0.24ZM27.376 14.36L19.184 31.448H35.568L27.376 14.36ZM96.11 47L78.318 21.912L93.294 2.2H105.902L90.542 22.232L108.782 47H96.11ZM61.55 47V2.2H72.366V47H61.55ZM113.953 47L135.649 1.56H146.593L168.225 47H156.769L141.089 14.36L125.409 47H113.953ZM218.399 7.576L213.151 16.28C209.055 12.696 201.311 10.456 195.295 10.456C190.559 10.456 186.975 11.8 186.975 14.872C186.975 22.68 218.527 16.792 218.527 34.648C218.527 44.504 208.287 48.472 197.151 48.472C188.063 48.472 178.335 45.848 172.895 41.624L178.207 32.664C182.431 36.568 191.455 39 198.239 39C202.975 39 206.687 37.72 206.687 34.904C206.687 26.776 175.263 32.408 175.263 14.68C175.263 4.824 184.479 0.983997 194.847 0.983997C203.423 0.983997 212.767 3.544 218.399 7.576ZM237.741 20.056H255.405V29.08H237.741V47H226.925V2.2H237.741V20.056ZM262.445 47V2.2H273.197V47H262.445Z" fill="white"/>
</svg>
